# xmcd
#
# Track frame offsets:
# 150
# 27020
# 54848
# 74193
# 97836
# 115223
# 142224
# 170726
# 190078
# 202534
# 219622
# 244558
#
# Disc length: 3631 seconds
#
#
# Revision: 0
# Processed by: cddbd v1.5.1PL2 Copyright (c) Steve Scherf et al.
# Submitted via: FreeRIP 2.92 
#
DISCID=a70e2d0c
DTITLE=Kenny Wayne Shepherd - Ledbetter Heights
DYEAR=1900
DGENRE=Blues
TTITLE0=Born With A Broken Heart
TTITLE1=Deja Voodoo
TTITLE2=Aberdeen
TTITLE3=Shame,Shame,Shame
TTITLE4=One Foot In The Path
TTITLE5=Everybody Gets The Blues
TTITLE6=While We Cry [Live]
TTITLE7=I'm Leaving You [Commit A Crime]
TTITLE8=Let Me Up [I've Had Enough]
TTITLE9=Riverside
TTITLE10=What's Goin Down
TTITLE11=Ledbetter Heights
EXTD=
EXTT0=
EXTT1=
EXTT2=
EXTT3=
EXTT4=
EXTT5=
EXTT6=
EXTT7=
EXTT8=
EXTT9=
EXTT10=
EXTT11=
PLAYORDER=
